<?xml version="1.0" encoding="UTF-8"?>
<!DOCTYPE svg PUBLIC "-//W3C//DTD SVG 1.1//EN" "http://www.w3.org/Graphics/SVG/1.1/DTD/svg11.dtd">
<!-- Creator: CorelDRAW 2020 (64 Bit) -->
<svg xmlns="http://www.w3.org/2000/svg" xml:space="preserve" width="200mm" height="200mm" version="1.1" style="shape-rendering:geometricPrecision; text-rendering:geometricPrecision; image-rendering:optimizeQuality; fill-rule:evenodd; clip-rule:evenodd"
viewBox="0 0 20000 20000"
 xmlns:xlink="http://www.w3.org/1999/xlink"
 xmlns:xodm="http://www.corel.com/coreldraw/odm/2003">
 <defs>
  <style type="text/css">
   <![CDATA[
    .fil0 {fill:#FEFEFE}
    .fil1 {fill:#ED3237}
   ]]>
  </style>
 </defs>
 <g id="Camada_x0020_1">
  <metadata id="CorelCorpID_0Corel-Layer"/>
  <g id="_2042451970960">
   <path class="fil0" d="M7403.33 3879.76l5178.14 0c476.58,0 866.51,389.92 866.51,866.51l0 5178.13c0,476.59 -389.93,866.52 -866.51,866.52l-5178.14 0c-476.58,0 -866.51,-389.93 -866.51,-866.52l0 -5178.13c0,-476.59 389.93,-866.51 866.51,-866.51zm565.98 6251.84l0 -5286.6 1711.76 0c648.52,0 1070.6,25.83 1267.5,78.74 302.72,80 556.22,252.28 760.51,518.09 204.27,265.81 306.41,609.15 306.41,1030 0,324.88 -59.06,596.84 -175.98,818.33 -118.13,221.52 -267.03,395.03 -447.93,521.78 -180.9,125.52 -365.49,209.19 -552.54,249.81 -254.73,50.45 -622.67,76.3 -1105.06,76.3l-694.05 0 0 1993.55 -1070.62 0zm1070.62 -4393.2l0 1506.24 582.06 0c419.63,0 698.98,-28.31 840.49,-83.69 141.53,-55.37 252.28,-141.51 332.26,-260.88 79.99,-118.14 120.6,-254.72 120.6,-412.25 0,-193.2 -56.61,-351.95 -168.6,-477.46 -113.21,-125.52 -254.72,-204.29 -428.23,-236.27 -126.75,-23.39 -381.48,-35.69 -765.43,-35.69l-513.15 0z"/>
   <path class="fil1" d="M9992.4 19889.51c3988.84,-2018.22 7209.65,-9648.31 7209.65,-12554.17 0,-3981.78 -3227.88,-7209.65 -7209.65,-7209.65 -3981.77,0 -7209.65,3227.87 -7209.65,7209.65 0,2905.84 3265.64,10580.78 7209.65,12554.17zm0 -18326.32c3187.87,0 5772.15,2584.27 5772.15,5772.15 0,3187.87 -2584.28,5772.14 -5772.15,5772.14 -3187.87,0 -5772.15,-2584.27 -5772.15,-5772.14 0,-3187.88 2584.28,-5772.15 5772.15,-5772.15z"/>
  </g>
 </g>
</svg>
